<?xml version="1.0" encoding="UTF-8"?>
<!DOCTYPE svg PUBLIC "-//W3C//DTD SVG 1.1//EN" "http://www.w3.org/Graphics/SVG/1.1/DTD/svg11.dtd">
<!-- Creator: CorelDRAW X7 -->
<svg xmlns="http://www.w3.org/2000/svg" xml:space="preserve" width="87.298mm" height="32.921mm" version="1.1" style="shape-rendering:geometricPrecision; text-rendering:geometricPrecision; image-rendering:optimizeQuality; fill-rule:evenodd; clip-rule:evenodd"
viewBox="0 0 8730 3292"
 xmlns:xlink="http://www.w3.org/1999/xlink">
 <defs>
  <style type="text/css">
   <![CDATA[
    .fil1 {fill:#FFEAC0;fill-rule:nonzero}
    .fil2 {fill:#FFDA81;fill-rule:nonzero}
    .fil3 {fill:#FFCA39;fill-rule:nonzero}
    .fil0 {fill:#F28330;fill-rule:nonzero}
   ]]>
  </style>
 </defs>
 <g id="Capa_x0020_1">
  <metadata id="CorelCorpID_0Corel-Layer"/>
  <path class="fil0" d="M7317 2500c-69,0 -108,20 -152,55 -168,137 -365,237 -615,226 -138,-6 -353,-42 -473,-81 -11,-4 -20,-7 -29,-10 -20,-6 -41,-9 -62,-9 -56,0 -108,20 -148,54 -50,42 -81,105 -81,175 0,21 3,41 8,60 14,52 45,96 87,126 8,6 17,11 25,16 259,156 663,156 663,156 403,0 699,-133 935,-344 44,-45 79,-109 79,-182 0,-138 -104,-242 -237,-242z"/>
  <path class="fil0" d="M1213 1671c-506,-120 -596,-203 -596,-377l0 -7c0,-164 157,-275 390,-275 195,0 380,61 583,193 44,27 88,39 138,39 139,0 252,-111 252,-248 0,-108 -62,-181 -117,-213 -251,-167 -528,-248 -848,-248 -547,0 -928,326 -928,793l0 8c0,500 329,677 897,814 479,111 563,206 563,365l0 8c0,178 -168,293 -428,293 -260,0 -485,-83 -711,-262 -43,-32 -94,-48 -155,-48 -139,0 -252,112 -252,248 0,81 39,158 104,204 295,220 642,336 1003,336 588,0 969,-320 969,-816l0 -7c0,-419 -251,-651 -864,-800z"/>
  <path class="fil1" d="M3032 793c0,151 -123,274 -274,274 -151,0 -274,-123 -274,-274 0,-151 123,-274 274,-274 151,0 274,123 274,274z"/>
  <path class="fil2" d="M2758 1789c-151,0 -274,-122 -274,-274 0,-151 123,-274 274,-274 151,0 274,123 274,274 0,152 -123,274 -274,274z"/>
  <path class="fil3" d="M2484 2960c0,151 123,274 274,274 151,0 274,-123 274,-274l0 -722c0,-152 -123,-274 -274,-274 -151,0 -274,122 -274,274l0 722z"/>
  <path class="fil0" d="M8445 2c-157,0 -285,128 -285,285l0 2674c0,158 128,286 285,286 158,0 286,-128 286,-286l0 -2674c0,-157 -128,-285 -286,-285z"/>
  <path class="fil0" d="M6445 557c-270,0 -502,91 -714,257 -238,187 -387,438 -460,728 -73,286 -129,569 -214,859 -51,167 -133,296 -300,296 -162,0 -295,-128 -295,-296l-1 -4 0 -1315 405 0c151,0 274,-122 274,-273 0,-152 -123,-274 -274,-274l-1297 0c-151,0 -274,122 -274,274 0,151 123,273 274,273l401 0 0 1409c0,0 -13,665 773,694 398,15 606,-232 731,-554 72,-185 149,-438 197,-639 35,-150 69,-329 120,-474 113,-323 417,-475 680,-474 335,1 575,245 643,576 11,55 -31,108 -88,108l-790 0c2,0 3,0 5,0 -115,3 -207,97 -207,212 0,117 95,212 212,212 0,0 -1,0 -1,0l1186 0c152,0 280,-118 280,-285 0,-601 -439,-1310 -1266,-1310z"/>
 </g>
</svg>
