<?xml version="1.0" encoding="UTF-8"?>
<!DOCTYPE svg PUBLIC "-//W3C//DTD SVG 1.1//EN" "http://www.w3.org/Graphics/SVG/1.1/DTD/svg11.dtd">
<!-- Creator: CorelDRAW X7 -->
<svg xmlns="http://www.w3.org/2000/svg" xml:space="preserve" width="123.064mm" height="68.004mm" version="1.1" style="shape-rendering:geometricPrecision; text-rendering:geometricPrecision; image-rendering:optimizeQuality; fill-rule:evenodd; clip-rule:evenodd"
viewBox="0 0 12306 6800"
 xmlns:xlink="http://www.w3.org/1999/xlink">
 <defs>
  <style type="text/css">
   <![CDATA[
    .str1 {stroke:#FEFEFE;stroke-width:52.92}
    .str0 {stroke:#FEFEFE;stroke-width:17.64}
    .fil1 {fill:none;fill-rule:nonzero}
    .fil0 {fill:#FEFEFE;fill-rule:nonzero}
    .fil2 {fill:#FFEAC0;fill-rule:nonzero}
    .fil3 {fill:#FFDA81;fill-rule:nonzero}
    .fil4 {fill:#FFCA39;fill-rule:nonzero}
   ]]>
  </style>
 </defs>
 <g id="Capa_x0020_1">
  <metadata id="CorelCorpID_0Corel-Layer"/>
  <path class="fil0" d="M9055 3554c-69,0 -108,19 -152,54 -168,138 -365,237 -615,226 -138,-6 -353,-42 -473,-81 -11,-3 -20,-7 -29,-10 -20,-5 -41,-9 -62,-9 -56,0 -108,21 -148,54 -50,42 -81,105 -81,176 0,20 3,40 8,59 14,52 45,96 87,126 8,6 17,11 25,17 259,156 663,156 663,156 403,0 699,-133 935,-345 44,-44 79,-108 79,-182 0,-138 -104,-241 -237,-241z"/>
  <path class="fil1 str0" d="M9055 3554c-69,0 -108,19 -152,54 -168,138 -365,237 -615,226 -138,-6 -353,-42 -473,-81 -11,-3 -20,-7 -29,-10 -20,-5 -41,-9 -62,-9 -56,0 -108,21 -148,54 -50,42 -81,105 -81,176 0,20 3,40 8,59 14,52 45,96 87,126 8,6 17,11 25,17 259,156 663,156 663,156 403,0 699,-133 935,-345 44,-44 79,-108 79,-182 0,-138 -104,-241 -237,-241z"/>
  <path class="fil0" d="M2951 2724c-506,-120 -596,-203 -596,-376l0 -8c0,-164 157,-274 390,-274 195,0 380,61 583,193 44,26 88,38 138,38 139,0 252,-111 252,-248 0,-107 -62,-181 -117,-212 -251,-168 -528,-249 -848,-249 -547,0 -928,326 -928,793l0 8c0,500 329,677 897,815 479,110 563,205 563,365l0 7c0,178 -168,293 -428,293 -260,0 -485,-83 -711,-261 -43,-33 -94,-48 -155,-48 -139,0 -252,111 -252,248 0,81 39,157 104,204 295,219 642,335 1003,335 588,0 969,-320 969,-816l0 -7c0,-419 -251,-651 -864,-800z"/>
  <path class="fil2" d="M4770 1846c0,152 -123,274 -274,274 -151,0 -274,-122 -274,-274 0,-151 123,-274 274,-274 151,0 274,123 274,274z"/>
  <path class="fil3" d="M4496 2842c-151,0 -274,-122 -274,-273 0,-152 123,-274 274,-274 151,0 274,122 274,274 0,151 -123,273 -274,273z"/>
  <path class="fil4" d="M4222 4013c0,151 123,274 274,274 151,0 274,-123 274,-274l0 -722c0,-151 -123,-274 -274,-274 -151,0 -274,123 -274,274l0 722z"/>
  <path class="fil0" d="M10183 1055c-157,0 -285,128 -285,285l0 2675c0,157 128,285 285,285 158,0 286,-128 286,-285l0 -2675c0,-157 -128,-285 -286,-285z"/>
  <path class="fil0" d="M8183 1610c-270,0 -502,91 -714,258 -238,186 -387,437 -460,727 -73,286 -129,569 -214,860 -51,167 -133,295 -300,295 -162,0 -295,-128 -295,-295l-1 -5 0 -1314 405 0c151,0 274,-123 274,-274 0,-151 -123,-274 -274,-274l-1297 0c-151,0 -274,123 -274,274 0,151 123,274 274,274l401 0 0 1408c0,0 -13,665 773,694 398,15 606,-232 731,-554 72,-185 149,-437 197,-639 35,-149 69,-328 120,-474 113,-322 417,-475 680,-474 335,2 575,245 643,576 11,56 -31,108 -88,108l-790 0c2,0 3,0 5,0 -115,3 -207,97 -207,212 0,117 95,212 212,212 0,0 -1,1 -1,1l1186 0c152,0 280,-119 280,-286 0,-600 -439,-1310 -1266,-1310z"/>
  <path class="fil1 str1" d="M8183 1610c-270,0 -502,91 -714,258 -238,186 -387,437 -460,727 -73,286 -129,569 -214,860 -51,167 -133,295 -300,295 -162,0 -295,-128 -295,-295l-1 -5 0 -1314 405 0c151,0 274,-123 274,-274 0,-151 -123,-274 -274,-274l-1297 0c-151,0 -274,123 -274,274 0,151 123,274 274,274l401 0 0 1408c0,0 -13,665 773,694 398,15 606,-232 731,-554 72,-185 149,-437 197,-639 35,-149 69,-328 120,-474 113,-322 417,-475 680,-474 335,2 575,245 643,576 11,56 -31,108 -88,108l-790 0c2,0 3,0 5,0 -115,3 -207,97 -207,212 0,117 95,212 212,212 0,0 -1,1 -1,1l1186 0c152,0 280,-119 280,-286 0,-600 -439,-1310 -1266,-1310z"/>
  <path class="fil0" d="M2117 5473c-11,-8 -19,-21 -19,-37 0,-25 21,-45 46,-45 13,0 22,4 28,9 46,36 95,57 154,57 60,0 98,-29 98,-70l0 -1c0,-39 -22,-61 -124,-84 -118,-29 -184,-63 -184,-165l0 -1c0,-95 79,-160 188,-160 70,0 125,18 175,51 11,6 21,20 21,39 0,25 -20,45 -45,45 -10,0 -18,-3 -26,-8 -42,-27 -83,-41 -126,-41 -57,0 -90,29 -90,65l0 2c0,42 25,61 131,86 117,28 177,70 177,161l0 2c0,103 -81,164 -197,164 -75,0 -145,-23 -207,-69z"/>
  <path class="fil0" d="M2610 5162c0,-26 20,-47 47,-47 27,0 48,21 48,47l0 329c0,27 -21,47 -48,47 -26,0 -47,-20 -47,-47l0 -329zm-7 -154c0,-29 23,-47 54,-47 30,0 54,18 54,47l0 4c0,29 -24,47 -54,47 -31,0 -54,-18 -54,-47l0 -4z"/>
  <path class="fil0" d="M2809 5162c0,-26 21,-47 48,-47 26,0 48,21 48,47l0 20c26,-37 63,-71 126,-71 60,0 102,29 124,73 33,-44 78,-73 140,-73 91,0 146,57 146,158l0 222c0,27 -20,47 -47,47 -27,0 -48,-20 -48,-47l0 -192c0,-67 -31,-102 -84,-102 -52,0 -89,36 -89,103l0 191c0,27 -21,47 -47,47 -27,0 -48,-20 -48,-47l0 -193c0,-65 -32,-101 -85,-101 -52,0 -88,39 -88,103l0 191c0,27 -22,47 -48,47 -26,0 -48,-20 -48,-47l0 -329z"/>
  <path class="fil0" d="M3870 5328l0 -2c0,-80 -55,-133 -119,-133 -64,0 -121,54 -121,133l0 2c0,79 57,133 121,133 65,0 119,-52 119,-133zm-333 -166c0,-26 21,-47 47,-47 27,0 48,21 48,47l0 26c31,-43 74,-77 142,-77 97,0 192,77 192,215l0 2c0,137 -94,215 -192,215 -69,0 -113,-34 -142,-73l0 147c0,27 -21,47 -48,47 -26,0 -47,-20 -47,-47l0 -455z"/>
  <path class="fil0" d="M4051 5004c0,-26 20,-48 47,-48 27,0 48,22 48,48l0 487c0,27 -21,47 -48,47 -26,0 -47,-20 -47,-47l0 -487z"/>
  <path class="fil0" d="M4256 5162c0,-26 21,-47 47,-47 27,0 48,21 48,47l0 329c0,27 -21,47 -48,47 -26,0 -47,-20 -47,-47l0 -329zm-7 -154c0,-29 24,-47 54,-47 31,0 55,18 55,47l0 4c0,29 -24,47 -55,47 -30,0 -54,-18 -54,-47l0 -4z"/>
  <path class="fil0" d="M4757 5162c0,-26 21,-47 47,-47 27,0 48,21 48,47l0 329c0,27 -21,47 -48,47 -26,0 -47,-20 -47,-47l0 -329zm-7 -154c0,-29 24,-47 54,-47 31,0 55,18 55,47l0 4c0,29 -24,47 -55,47 -30,0 -54,-18 -54,-47l0 -4zm-273 193l-16 0c-22,0 -41,-17 -41,-39 0,-22 19,-40 41,-40l16 0 0 -31c0,-46 12,-80 34,-102 22,-22 53,-33 94,-33 18,0 34,1 48,4 17,2 33,18 33,39 0,22 -19,40 -41,39 -5,-1 -13,-1 -19,-1 -36,0 -55,19 -55,63l0 22 74 0c22,0 40,18 40,40 0,22 -18,39 -40,39l-73 0 0 290c0,26 -21,47 -48,47 -26,0 -47,-21 -47,-47l0 -290z"/>
  <path class="fil0" d="M4934 5329l0 -1c0,-118 91,-217 216,-217 66,0 111,21 146,51 6,6 15,18 15,34 0,24 -20,43 -44,43 -12,0 -22,-5 -28,-10 -25,-20 -52,-35 -89,-35 -70,0 -121,60 -121,132l0 2c0,74 51,133 125,133 37,0 66,-15 92,-37 6,-5 15,-11 26,-11 23,0 41,19 41,42 0,13 -4,23 -13,30 -37,35 -82,59 -151,59 -124,0 -215,-97 -215,-215z"/>
  <path class="fil0" d="M5644 5385l0 -28c-25,-10 -57,-17 -95,-17 -61,0 -97,26 -97,69l0 2c0,40 35,63 81,63 63,0 111,-36 111,-89zm-285 30l0 -2c0,-89 70,-133 171,-133 47,0 80,7 112,17l0 -10c0,-59 -36,-91 -103,-91 -36,0 -66,7 -92,17 -5,1 -10,2 -15,2 -22,0 -40,-17 -40,-39 0,-17 12,-32 26,-38 39,-15 79,-24 134,-24 62,0 108,16 137,46 31,30 45,74 45,128l0 205c0,26 -20,45 -46,45 -28,0 -47,-18 -47,-40l0 -15c-28,33 -71,60 -135,60 -78,0 -147,-45 -147,-128z"/>
  <path class="fil0" d="M5829 5162c0,-26 20,-47 47,-47 27,0 48,21 48,47l0 20c27,-37 63,-71 126,-71 60,0 103,29 125,73 33,-44 77,-73 140,-73 90,0 145,57 145,158l0 222c0,27 -20,47 -47,47 -27,0 -48,-20 -48,-47l0 -192c0,-67 -31,-102 -84,-102 -52,0 -89,36 -89,103l0 191c0,27 -21,47 -47,47 -27,0 -48,-20 -48,-47l0 -193c0,-65 -32,-101 -84,-101 -53,0 -89,39 -89,103l0 191c0,27 -21,47 -48,47 -26,0 -47,-20 -47,-47l0 -329z"/>
  <path class="fil0" d="M6881 5329l0 -1c0,-74 -53,-134 -127,-134 -77,0 -125,60 -125,132l0 2c0,72 52,133 126,133 77,0 126,-60 126,-132zm-348 0l0 -1c0,-119 95,-217 222,-217 128,0 221,96 221,215l0 2c0,118 -94,216 -222,216 -127,0 -221,-97 -221,-215z"/>
  <path class="fil0" d="M7038 5493c-10,-6 -18,-17 -18,-33 0,-21 16,-39 38,-39 8,0 15,3 21,6 40,26 81,40 119,40 41,0 65,-17 65,-45l0 -2c0,-32 -44,-43 -93,-58 -62,-17 -130,-42 -130,-122l0 -1c0,-79 65,-127 148,-127 44,0 90,13 130,34 14,7 23,20 23,36 0,22 -17,39 -39,39 -8,0 -13,-2 -19,-5 -34,-17 -68,-28 -97,-28 -37,0 -59,17 -59,41l0 1c0,31 45,43 94,59 61,19 129,46 129,121l0 2c0,87 -68,130 -154,130 -53,0 -110,-16 -158,-49z"/>
  <path class="fil0" d="M7664 5420l0 -219 -16 0c-23,0 -41,-18 -41,-41 0,-23 18,-41 41,-41l16 0 0 -71c0,-26 21,-47 48,-47 26,0 47,21 47,47l0 71 75 0c23,0 41,18 41,41 0,23 -18,41 -41,41l-75 0 0 204c0,37 19,52 51,52 11,0 21,-3 24,-3 21,0 40,18 40,40 0,17 -12,31 -25,37 -21,7 -40,11 -66,11 -70,0 -119,-31 -119,-122z"/>
  <path class="fil0" d="M8317 5491c0,26 -22,47 -48,47 -26,0 -48,-20 -48,-47l0 -21c-27,39 -65,73 -130,73 -94,0 -148,-63 -148,-160l0 -221c0,-26 21,-47 47,-47 27,0 48,21 48,47l0 193c0,65 33,101 89,101 55,0 94,-38 94,-102l0 -192c0,-26 21,-47 48,-47 26,0 48,21 48,47l0 329z"/>
  <path class="fil0" d="M8805 5542l-4 0c-26,0 -44,-16 -55,-41l-138 -317c-2,-7 -6,-15 -6,-24 0,-23 22,-45 48,-45 25,0 39,14 47,34l107 275 108 -276c7,-17 20,-33 45,-33 26,0 46,19 46,45 0,9 -3,18 -5,23l-138 318c-11,24 -29,41 -55,41z"/>
  <path class="fil0" d="M9079 5162c0,-26 21,-47 47,-47 27,0 48,21 48,47l0 329c0,27 -21,47 -48,47 -26,0 -47,-20 -47,-47l0 -329zm-7 -154c0,-29 24,-47 54,-47 31,0 55,18 55,47l0 4c0,29 -24,47 -55,47 -30,0 -54,-18 -54,-47l0 -4z"/>
  <path class="fil0" d="M9354 5326l0 2c0,80 55,133 119,133 64,0 120,-54 120,-133l0 -2c0,-80 -56,-133 -120,-133 -65,0 -119,50 -119,133zm333 165c0,27 -21,47 -47,47 -27,0 -48,-20 -48,-47l0 -26c-31,44 -74,78 -142,78 -97,0 -192,-78 -192,-215l0 -2c0,-138 93,-215 192,-215 69,0 112,33 142,73l0 -180c0,-27 21,-48 47,-48 27,0 48,21 48,48l0 487z"/>
  <path class="fil0" d="M10044 5385l0 -28c-24,-10 -56,-17 -94,-17 -61,0 -98,26 -98,69l0 2c0,40 36,63 81,63 63,0 111,-36 111,-89zm-284 30l0 -2c0,-89 70,-133 171,-133 46,0 79,7 112,17l0 -10c0,-59 -37,-91 -103,-91 -37,0 -66,7 -92,17 -6,1 -11,2 -15,2 -22,0 -40,-17 -40,-39 0,-17 11,-32 26,-38 39,-15 79,-24 133,-24 62,0 109,16 138,46 31,30 45,74 45,128l0 205c0,26 -21,45 -47,45 -27,0 -46,-18 -46,-40l0 -15c-28,33 -72,60 -135,60 -78,0 -147,-45 -147,-128z"/>
 </g>
</svg>
